<svg width="131" height="260" viewBox="0 0 131 260" fill="none" xmlns="http://www.w3.org/2000/svg">
<path d="M93.7011 6.5907H36.1816V13.6931H93.7011V6.5907Z" fill="#013E7A"/>
<path d="M45.0596 -1.90735e-05V21.3073L84.7316 21.3073V-1.90735e-05L45.0596 -1.90735e-05Z" fill="#0056B8"/>
<path d="M33.2161 0.131821V21.4391H36.0874V0.131821H33.2161Z" fill="#0056B8"/>
<path d="M93.7046 0.0497913V21.3571H96.576V0.0497913H93.7046Z" fill="#0056B8"/>
<path d="M26.0046 244.979H104.892C104.892 252.923 98.4493 259.356 90.5148 259.356H40.3819C32.4373 259.366 26.0046 252.923 26.0046 244.979Z" fill="#0056B8"/>
<path d="M0 21.5769H130.887V240.93C130.887 248.875 124.445 255.307 116.51 255.307H14.3875C6.44291 255.307 0.0101461 248.864 0.0101461 240.93V21.5769H0Z" fill="#B6B6B8"/>
<path d="M13.6974 240.23H117.19V242.858C117.19 247.738 113.233 251.695 108.352 251.695H22.5349C17.6545 251.695 13.6974 247.738 13.6974 242.858V240.23Z" fill="#0056B8"/>
<path d="M13.6974 240.23H67.2903V251.695H22.6161C17.6951 251.695 13.6974 247.708 13.6974 242.777V240.23Z" fill="#0277C6"/>
<path d="M0 21.5769H130.887V227.547C130.887 232.316 127.022 236.172 122.263 236.172H8.63452C3.86575 236.172 0.0101461 232.306 0.0101461 227.547V21.5769H0Z" fill="url(#paint0_linear_305_14133)"/>
<path d="M13.7024 231.093L117.195 231.093L117.195 27.1519L13.7024 27.1519L13.7024 231.093Z" fill="#C9C9C9"/>
<path d="M26.3495 190.929H104.537V221.399H26.3495V190.929Z" fill="url(#paint1_linear_305_14133)"/>
<path d="M26.3494 39.1606H104.537V69.63H26.3494V39.1606Z" fill="url(#paint2_linear_305_14133)"/>
<path d="M26.3495 69.6299H104.537V190.929H26.3495V69.6299Z" fill="url(#paint3_linear_305_14133)"/>
<defs>
<linearGradient id="paint0_linear_305_14133" x1="130.89" y1="128.87" x2="0.00254329" y2="128.87" gradientUnits="userSpaceOnUse">
<stop stop-color="#A7A9AC"/>
<stop offset="0.0782" stop-color="#E9E9E9"/>
<stop offset="0.9414" stop-color="#E9E9E9"/>
<stop offset="1" stop-color="#A7A9AC"/>
</linearGradient>
<linearGradient id="paint1_linear_305_14133" x1="104.538" y1="206.161" x2="26.3533" y2="206.161" gradientUnits="userSpaceOnUse">
<stop stop-color="#A7A9AC"/>
<stop offset="0.0782" stop-color="#E9E9E9"/>
<stop offset="0.9414" stop-color="#E9E9E9"/>
<stop offset="1" stop-color="#A7A9AC"/>
</linearGradient>
<linearGradient id="paint2_linear_305_14133" x1="104.538" y1="54.3966" x2="26.3532" y2="54.3966" gradientUnits="userSpaceOnUse">
<stop stop-color="#A7A9AC"/>
<stop offset="0.0782" stop-color="#E9E9E9"/>
<stop offset="0.9414" stop-color="#E9E9E9"/>
<stop offset="1" stop-color="#A7A9AC"/>
</linearGradient>
<linearGradient id="paint3_linear_305_14133" x1="104.538" y1="130.278" x2="26.3533" y2="130.278" gradientUnits="userSpaceOnUse">
<stop stop-color="#A7A9AC"/>
<stop offset="0.0782" stop-color="#E9E9E9"/>
<stop offset="0.9414" stop-color="#E9E9E9"/>
<stop offset="1" stop-color="#A7A9AC"/>
</linearGradient>
</defs>
</svg>
