<svg width="131" height="255" viewBox="0 0 131 255" fill="none" xmlns="http://www.w3.org/2000/svg">
<path d="M94.2084 6.59631H36.689V13.6987H94.2084V6.59631Z" fill="#013E7A"/>
<path d="M45.5652 -9.53674e-06V21.3073L85.2373 21.3073V-9.53674e-06L45.5652 -9.53674e-06Z" fill="#0056B8"/>
<path d="M33.7217 0.132067V21.4393H36.5931V0.132067H33.7217Z" fill="#0056B8"/>
<path d="M94.2209 0.0397816V21.347H97.0924V0.0397816H94.2209Z" fill="#0056B8"/>
<path d="M130.887 254.532H0V29.426C0 24.6572 3.86575 20.8016 8.62437 20.8016H122.253C127.022 20.8016 130.877 24.6674 130.877 29.426V254.532H130.887Z" fill="url(#paint0_linear_305_14135)"/>
<path d="M117.19 20.8728H13.6974V254.492H117.19V20.8728Z" fill="#C9C9C9"/>
<path d="M104.548 33.6168H26.3605V64.0861H104.548V33.6168Z" fill="url(#paint1_linear_305_14135)"/>
<defs>
<linearGradient id="paint0_linear_305_14135" x1="0.00456584" y1="137.662" x2="130.892" y2="137.662" gradientUnits="userSpaceOnUse">
<stop stop-color="#A7A9AC"/>
<stop offset="0.0782" stop-color="#E9E9E9"/>
<stop offset="0.9414" stop-color="#E9E9E9"/>
<stop offset="1" stop-color="#A7A9AC"/>
</linearGradient>
<linearGradient id="paint1_linear_305_14135" x1="26.356" y1="48.8543" x2="104.541" y2="48.8543" gradientUnits="userSpaceOnUse">
<stop stop-color="#A7A9AC"/>
<stop offset="0.0782" stop-color="#E9E9E9"/>
<stop offset="0.9414" stop-color="#E9E9E9"/>
<stop offset="1" stop-color="#A7A9AC"/>
</linearGradient>
</defs>
</svg>
