<svg width="112" height="226" viewBox="0 0 112 226" fill="none" xmlns="http://www.w3.org/2000/svg">
<path d="M111.859 213.751H1.00525V225.679H111.859V213.751Z" fill="#AF1209"/>
<path d="M111.859 198.452H1.00525V210.38H111.859V198.452Z" fill="#AF1209"/>
<path d="M111.859 183.153H1.00525V195.081H111.859V183.153Z" fill="#AF1209"/>
<path d="M111.859 167.854H1.00525V179.782H111.859V167.854Z" fill="#AF1209"/>
<path d="M111.859 152.555H1.00525V164.483H111.859V152.555Z" fill="#AF1209"/>
<path d="M111.859 137.256H1.00525V149.184H111.859V137.256Z" fill="#AF1209"/>
<path d="M111.859 121.946H1.00525V133.874H111.859V121.946Z" fill="#AF1209"/>
<path d="M111.859 106.647H1.00525V118.575H111.859V106.647Z" fill="#AF1209"/>
<path d="M111.859 91.3481H1.00525V103.276H111.859V91.3481Z" fill="#AF1209"/>
<path d="M111.859 76.0493H1.00525V87.9775H111.859V76.0493Z" fill="#AF1209"/>
<path d="M111.859 60.7499H1.00525V72.6782H111.859V60.7499Z" fill="#AF1209"/>
<path d="M111.859 45.4511H1.00525V57.3793H111.859V45.4511Z" fill="#AF1209"/>
<path d="M111.859 30.1522H1.00525V42.0804H111.859V30.1522Z" fill="#AF1209"/>
<path d="M111.859 15.1794H1.00525V27.1076H111.859V15.1794Z" fill="#AF1209"/>
<path d="M111.859 15.1794H1.00525V27.1076H111.859V15.1794Z" fill="#AF1209"/>
<path d="M111.816 0H0.961914V11.9282H111.816V0Z" fill="#AF1209"/>
</svg>
