<svg width="257" height="256" viewBox="0 0 257 256" fill="none" xmlns="http://www.w3.org/2000/svg">
<path d="M252.045 102.85C255.34 128.933 263.111 164.321 200.424 164.321C137.737 164.321 23.1663 162.168 23.1663 108C23.1663 53.8307 62.7714 7.16538 136.668 9.9082C199.299 12.24 245.255 49.0775 252.045 102.85Z" fill="url(#paint0_linear_408_18321)"/>
<path d="M37.4636 53.2552C37.4636 53.2552 70.694 14.4073 121.325 10.7228C175.547 6.7767 228.891 34.6235 242.869 76.6103C255.268 113.844 248.119 159.523 248.119 159.523C248.119 159.523 257.646 133.021 256.385 101.49C255.835 87.7834 250.258 67.8811 242.869 55.998C222.907 23.8913 185.345 -2.98386 128.761 0.26717C80.9463 3.00999 51.9685 27.2246 33.0994 54.4062C37.1604 53.6214 33.1472 66.6106 37.2402 65.8707C40.288 65.3177 33.993 53.5841 37.4636 53.2552Z" fill="#F5DA4A"/>
<path d="M220.57 93.3289L248.853 121.923C248.861 121.93 248.965 122.573 248.965 122.581C248.821 131.235 250.106 136.549 247.88 149.254C238.553 156.72 230.583 161.742 220.57 170.606C220.57 157.079 220.57 147.109 220.57 133.582" fill="url(#paint1_linear_408_18321)"/>
<path d="M4.17725 80.108L20.6368 143.432C20.7246 143.761 21.0198 144 21.3549 144.008L118.477 146.085C118.82 146.093 119.123 145.861 119.211 145.525L136.373 80.392V158.917C136.373 175.733 123.264 188.917 107.1 188.371L34.0965 185.89C17.9481 185.344 4.77563 171.802 4.67191 155.659L4.17725 80.108Z" fill="#0056B8"/>
<path d="M4.5603 182.056L57.0108 199.462L57.0188 201.263C57.0268 203.714 58.9895 205.777 61.399 205.874L81.05 206.652C83.4674 206.749 85.4222 204.813 85.4142 202.332L85.4062 200.448L136.086 186.413V201.143C136.086 210.471 129.344 218.019 120.448 218.654L75.2416 221.815C72.0582 222.032 68.8349 221.89 65.6515 221.39L20.3497 214.364C11.4776 213.004 4.71189 205.217 4.65604 196.278L4.5603 182.056Z" fill="#0056B8"/>
<path d="M70.0317 47.8443C27.8255 48.7262 11.9084 62.246 11.9084 62.246L26.5091 123.761C27.6979 128.799 32.1658 132.431 37.296 132.521L105.033 133.731C110.259 133.821 114.751 130.107 115.772 124.838L127.955 61.8574C127.955 61.8648 112.238 46.9549 70.0317 47.8443ZM87.3529 61.9994C87.3609 66.222 84.0099 69.6524 79.8691 69.6524L60.6091 69.6748C56.4682 69.6823 53.0933 66.2967 53.0774 62.1115C53.0614 57.9337 56.4044 54.5257 60.5532 54.5033L79.8292 54.3987C83.9701 54.3688 87.337 57.7768 87.3529 61.9994Z" fill="#0056B8"/>
<path d="M73.4304 167.408C73.574 166.907 73.7176 166.428 73.8532 165.95C74.4676 163.843 75.0819 161.728 75.6963 159.62C75.8638 159.052 75.5766 158.656 74.9862 158.648C74.3798 158.641 73.9809 158.94 73.8133 159.523C73.0634 162.071 72.3214 164.62 71.5714 167.161C71.2044 168.402 70.8533 169.65 70.4464 170.883C70.1592 171.772 69.7044 172.579 69.0103 173.207C68.3401 173.82 67.5343 174.126 66.6487 174.261C65.8987 174.373 65.1487 174.388 64.3908 174.306C63.1541 174.171 62.1249 173.633 61.4786 172.475C61.0159 171.653 60.96 170.771 61.2073 169.896C61.718 168.08 62.2525 166.272 62.7791 164.455C63.2738 162.744 63.7764 161.033 64.2791 159.314C64.4147 158.843 64.2312 158.454 63.8003 158.379C63.2179 158.275 62.6435 158.462 62.4281 159.134C62.2047 159.844 62.0052 160.562 61.7977 161.272C60.6249 165.307 59.4521 169.343 58.2792 173.379C58.2553 173.469 58.2314 173.536 58.1117 173.536C56.9787 173.499 55.8538 173.469 54.7208 173.431C54.6809 173.431 54.6411 173.424 54.5852 173.416C54.6331 173.259 54.673 173.117 54.7129 172.968C56.0293 168.439 57.3458 163.902 58.6702 159.358C58.9175 158.506 59.3005 157.729 59.9148 157.086C60.6568 156.302 61.5903 155.883 62.6355 155.681C63.3615 155.539 64.0955 155.495 64.8296 155.562C65.7471 155.644 66.5769 155.988 67.255 156.653C68.1247 157.505 68.372 158.529 68.0449 159.672C67.0077 163.29 65.9545 166.899 64.9094 170.509C64.7498 171.07 65.0689 171.518 65.6514 171.548C66.3215 171.585 66.6566 171.339 66.8641 170.636C67.4226 168.76 67.9731 166.877 68.5316 165.001C69.0502 163.252 69.5449 161.503 70.0954 159.762C70.4863 158.506 71.2044 157.483 72.2974 156.75C73.0235 156.264 73.8293 156.003 74.6989 155.883C75.3133 155.801 75.9276 155.786 76.542 155.868C77.3159 155.973 78.034 156.227 78.6323 156.758C79.502 157.52 79.7972 158.499 79.5339 159.59C79.3025 160.569 78.9993 161.526 78.7201 162.497C78.2573 164.112 77.7866 165.718 77.3318 167.333C77.292 167.467 77.2441 167.512 77.1005 167.505C75.9356 167.467 74.7708 167.437 73.6059 167.4C73.558 167.408 73.5102 167.408 73.4304 167.408Z" fill="white"/>
<path d="M76.8691 168.656C76.8133 168.865 76.7574 169.074 76.6936 169.276C76.5579 169.754 76.4143 170.232 76.2787 170.711C76.1271 171.241 76.3984 171.623 76.9489 171.645C77.0686 171.652 77.1962 171.652 77.3159 171.637C77.8106 171.6 78.026 171.264 78.1536 170.83C78.9036 168.244 79.6616 165.659 80.4116 163.065C81.0339 160.913 81.6642 158.768 82.2865 156.615C82.3264 156.481 82.3822 156.436 82.5179 156.444C83.6029 156.473 84.68 156.503 85.7651 156.526C85.813 156.526 85.8609 156.533 85.9327 156.541C85.8609 156.802 85.789 157.041 85.7172 157.288C84.5125 161.436 83.3157 165.584 82.111 169.724C81.9035 170.434 81.6961 171.152 81.369 171.817C80.5711 173.416 79.2946 174.335 77.5553 174.605C76.8771 174.709 76.1909 174.724 75.5048 174.649C74.699 174.567 73.941 174.321 73.3027 173.76C72.7761 173.289 72.4889 172.699 72.4012 172.004C72.3054 171.279 72.449 170.584 72.6565 169.911C72.7841 169.5 72.8958 169.089 73.0155 168.678C73.0394 168.596 73.0713 168.543 73.1751 168.543C74.3718 168.581 75.5766 168.611 76.7734 168.648C76.8053 168.641 76.8292 168.648 76.8691 168.656Z" fill="white"/>
<path d="M73.1672 44.526C73.1672 44.526 124.469 43.9282 162.877 50.9235C162.877 50.9235 145.843 51.626 142.309 64.0322C142.309 64.0322 125.993 45.6321 73.1672 44.526Z" fill="#0056B8"/>
<path d="M136.357 214.521C136.357 214.521 147.375 212.025 162.877 204.933C162.877 204.933 151.037 204.596 144.495 191.697C144.495 191.689 145.309 206.779 136.357 214.521Z" fill="#0056B8"/>
<path d="M171.271 200.546C158.449 203.064 146.649 192.594 146.84 178.879L148.285 75.5939C148.396 67.7765 152.322 61.3192 157.899 57.6497C167.162 51.5587 174.462 57.5152 175.132 57.844C184.467 64.7721 194.424 72.5222 204.613 80.9973C210.533 85.9224 213.931 92.9775 213.931 100.391V163.162C213.931 172.557 210.78 177.714 199.977 183.782C190.682 189.006 180.757 195.62 171.271 200.546Z" fill="url(#paint2_linear_408_18321)"/>
<path d="M220.57 156.825C220.57 156.825 221.463 170.016 217.498 172.669L220.57 170.599V156.825Z" fill="#558FD0"/>
<path d="M220.57 103.455C220.57 103.455 220.785 93.8594 218.791 92.1628L220.57 93.3512V103.455Z" fill="#558FD0"/>
<path d="M248.119 159.515L151.037 226.606C140.474 233.071 134.218 244.184 134.498 256L248.119 159.515Z" fill="#45BB3C"/>
<path d="M11.2543 231.703L131.658 234.76C131.658 234.76 125.466 240.462 125.817 255.327L0.762616 252.607C0.762616 252.607 -2.12559 238.878 11.2543 231.703Z" fill="#45BB3C"/>
<defs>
<linearGradient id="paint0_linear_408_18321" x1="168.508" y1="6.24261" x2="130.596" y2="161.348" gradientUnits="userSpaceOnUse">
<stop stop-color="#F5DA4A"/>
<stop offset="0.1293" stop-color="#F6DD59"/>
<stop offset="0.4365" stop-color="#FFFDF7"/>
<stop offset="1" stop-color="white"/>
</linearGradient>
<linearGradient id="paint1_linear_408_18321" x1="220.567" y1="131.967" x2="249.203" y2="131.967" gradientUnits="userSpaceOnUse">
<stop offset="0.1688" stop-color="#558FD0"/>
<stop offset="1" stop-color="white"/>
</linearGradient>
<linearGradient id="paint2_linear_408_18321" x1="146.843" y1="127.918" x2="213.939" y2="127.918" gradientUnits="userSpaceOnUse">
<stop offset="0.3162" stop-color="#0056B8"/>
<stop offset="1" stop-color="#558FD0"/>
</linearGradient>
</defs>
</svg>
