<svg width="112" height="150" viewBox="0 0 112 150" fill="none" xmlns="http://www.w3.org/2000/svg">
<path d="M111.148 137.741H0.294556V149.669H111.148V137.741Z" fill="#FD9400"/>
<path d="M111.148 122.442H0.294556V134.37H111.148V122.442Z" fill="#FD9400"/>
<path d="M111.148 107.132H0.294556V119.06H111.148V107.132Z" fill="#FD9400"/>
<path d="M111.148 91.8334H0.294556V103.762H111.148V91.8334Z" fill="#FD9400"/>
<path d="M111.148 76.5341H0.294556V88.4623H111.148V76.5341Z" fill="#FD9400"/>
<path d="M111.148 61.2352H0.294556V73.1634H111.148V61.2352Z" fill="#FD9400"/>
<path d="M111.148 45.9359H0.294556V57.8641H111.148V45.9359Z" fill="#FD9400"/>
<path d="M111.148 30.637H0.294556V42.5652H111.148V30.637Z" fill="#FD9400"/>
<path d="M111.148 15.3382H0.294556V27.2664H111.148V15.3382Z" fill="#FD9400"/>
<path d="M111.148 0.212891H0.294556V12.1411H111.148V0.212891Z" fill="#FD9400"/>
</svg>
