<svg width="443" height="1484" viewBox="0 0 443 1484" fill="none" xmlns="http://www.w3.org/2000/svg">
<g clip-path="url(#clip0_314_35258)">
<rect width="443" height="1484" fill="#E5E5EA"/>
<line x1="36.5001" y1="2.18557e-08" x2="36.5001" y2="1484" stroke="#C6C6C6"/>
<line x1="74.5002" y1="2.18557e-08" x2="74.5001" y2="1484" stroke="#C6C6C6"/>
<line x1="112.5" y1="2.18557e-08" x2="112.5" y2="1484" stroke="#C6C6C6"/>
<line x1="150.5" y1="2.18557e-08" x2="150.5" y2="1484" stroke="#C6C6C6"/>
<line x1="188.5" y1="2.18557e-08" x2="188.5" y2="1484" stroke="#C6C6C6"/>
<line x1="226.5" y1="2.18557e-08" x2="226.5" y2="1484" stroke="#C6C6C6"/>
<line x1="264.5" y1="2.18557e-08" x2="264.5" y2="1484" stroke="#C6C6C6"/>
<line x1="302.501" y1="2.18557e-08" x2="302.501" y2="1484" stroke="#C6C6C6"/>
<line x1="340.501" y1="2.18557e-08" x2="340.501" y2="1484" stroke="#C6C6C6"/>
<line x1="378.501" y1="2.18557e-08" x2="378.501" y2="1484" stroke="#C6C6C6"/>
<line x1="416.501" y1="2.18557e-08" x2="416.501" y2="1484" stroke="#C6C6C6"/>
<g clip-path="url(#clip1_314_35258)">
<line x1="1058.89" y1="38.209" x2="-4.26868" y2="38.2089" stroke="#C6C6C6" stroke-width="0.716417"/>
<line x1="1058.89" y1="78.3283" x2="-4.26868" y2="78.3282" stroke="#C6C6C6" stroke-width="0.716417"/>
<line x1="1058.89" y1="118.448" x2="-4.26868" y2="118.448" stroke="#C6C6C6" stroke-width="0.716417"/>
<line x1="1058.89" y1="158.567" x2="-4.26868" y2="158.567" stroke="#C6C6C6" stroke-width="0.716417"/>
<line x1="1058.89" y1="198.687" x2="-4.26868" y2="198.686" stroke="#C6C6C6" stroke-width="0.716417"/>
<line x1="1058.89" y1="238.806" x2="-4.26868" y2="238.806" stroke="#C6C6C6" stroke-width="0.716417"/>
<line x1="1058.89" y1="278.925" x2="-4.26868" y2="278.925" stroke="#C6C6C6" stroke-width="0.716417"/>
<line x1="1058.89" y1="319.045" x2="-4.26868" y2="319.045" stroke="#C6C6C6" stroke-width="0.716417"/>
<line x1="1058.89" y1="359.164" x2="-4.26868" y2="359.164" stroke="#C6C6C6" stroke-width="0.716417"/>
<line x1="1058.89" y1="399.284" x2="-4.26868" y2="399.283" stroke="#C6C6C6" stroke-width="0.716417"/>
<line x1="1058.89" y1="439.403" x2="-4.26868" y2="439.403" stroke="#C6C6C6" stroke-width="0.716417"/>
<line x1="1058.89" y1="479.522" x2="-4.26868" y2="479.522" stroke="#C6C6C6" stroke-width="0.716417"/>
<line x1="1058.89" y1="519.642" x2="-4.26868" y2="519.642" stroke="#C6C6C6" stroke-width="0.716417"/>
<line x1="1058.89" y1="559.761" x2="-4.26868" y2="559.761" stroke="#C6C6C6" stroke-width="0.716417"/>
<line x1="1058.89" y1="599.881" x2="-4.26868" y2="599.881" stroke="#C6C6C6" stroke-width="0.716417"/>
<line x1="1058.89" y1="640" x2="-4.26868" y2="640" stroke="#C6C6C6" stroke-width="0.716417"/>
<line x1="1058.89" y1="680.119" x2="-4.26868" y2="680.119" stroke="#C6C6C6" stroke-width="0.716417"/>
<line x1="1058.89" y1="720.239" x2="-4.26868" y2="720.239" stroke="#C6C6C6" stroke-width="0.716417"/>
<line x1="1058.89" y1="760.358" x2="-4.26868" y2="760.358" stroke="#C6C6C6" stroke-width="0.716417"/>
<line x1="1058.89" y1="800.478" x2="-4.26868" y2="800.477" stroke="#C6C6C6" stroke-width="0.716417"/>
<line x1="1058.89" y1="840.597" x2="-4.26868" y2="840.597" stroke="#C6C6C6" stroke-width="0.716417"/>
<line x1="1058.89" y1="880.716" x2="-4.26868" y2="880.716" stroke="#C6C6C6" stroke-width="0.716417"/>
<line x1="1058.89" y1="920.836" x2="-4.26868" y2="920.836" stroke="#C6C6C6" stroke-width="0.716417"/>
<line x1="1058.89" y1="960.955" x2="-4.26868" y2="960.955" stroke="#C6C6C6" stroke-width="0.716417"/>
<line x1="1058.89" y1="1001.07" x2="-4.26868" y2="1001.07" stroke="#C6C6C6" stroke-width="0.716417"/>
<line x1="1058.89" y1="1041.19" x2="-4.26868" y2="1041.19" stroke="#C6C6C6" stroke-width="0.716417"/>
<line x1="1058.89" y1="1081.31" x2="-4.26868" y2="1081.31" stroke="#C6C6C6" stroke-width="0.716417"/>
<line x1="1058.89" y1="1121.43" x2="-4.26868" y2="1121.43" stroke="#C6C6C6" stroke-width="0.716417"/>
<line x1="1058.89" y1="1161.55" x2="-4.26868" y2="1161.55" stroke="#C6C6C6" stroke-width="0.716417"/>
<line x1="1058.89" y1="1201.67" x2="-4.26868" y2="1201.67" stroke="#C6C6C6" stroke-width="0.716417"/>
<line x1="1058.89" y1="1241.79" x2="-4.26868" y2="1241.79" stroke="#C6C6C6" stroke-width="0.716417"/>
<line x1="1058.89" y1="1281.91" x2="-4.26868" y2="1281.91" stroke="#C6C6C6" stroke-width="0.716417"/>
<line x1="1058.89" y1="1322.03" x2="-4.26868" y2="1322.03" stroke="#C6C6C6" stroke-width="0.716417"/>
<line x1="1058.89" y1="1362.15" x2="-4.26868" y2="1362.15" stroke="#C6C6C6" stroke-width="0.716417"/>
<line x1="1058.89" y1="1402.27" x2="-4.26868" y2="1402.27" stroke="#C6C6C6" stroke-width="0.716417"/>
<line x1="1058.89" y1="1442.39" x2="-4.26868" y2="1442.39" stroke="#C6C6C6" stroke-width="0.716417"/>
<line x1="1058.89" y1="1482.51" x2="-4.26868" y2="1482.51" stroke="#C6C6C6" stroke-width="0.716417"/>
</g>
</g>
<defs>
<clipPath id="clip0_314_35258">
<rect width="443" height="1484" fill="white"/>
</clipPath>
<clipPath id="clip1_314_35258">
<rect width="688" height="1536" fill="white" transform="translate(-10 -8)"/>
</clipPath>
</defs>
</svg>
